<svg xmlns="http://www.w3.org/2000/svg" xmlns:xlink="http://www.w3.org/1999/xlink" version="1.1" id="Layer_1" x="0px" y="0px" viewBox="0 0 1920 1415" style="enable-background:new 0 0 1920 1415;" xml:space="preserve" class="page-background">
<style type="text/css">
	.st0{clip-path:url(#SVGID_2_);}
	.st1{fill:#FFFFFF;}
	.st2{fill:url(#Path_43_1_);}
	.st3{fill:url(#Path_44_1_);}
	.st4{fill:#EDEBF0;}
	.st5{fill:#454854;}
	.st6{fill:#D5483D;}
	.st7{fill:#F6CC17;}
	.st8{fill:#66B141;}
	.st9{fill:#191B1E;}
	.st10{fill:#295372;}
	.st11{fill:none;stroke:#A4A4A4;stroke-width:3;stroke-linecap:round;stroke-linejoin:round;}
	.st12{fill:#62AEE2;}
	.st13{fill:#E49D75;}
	.st14{fill:#D38D6A;}
	.st15{fill:none;stroke:#E0E0E0;stroke-width:2;stroke-linecap:round;stroke-linejoin:round;}
	.st16{fill:#E0E0E0;}
	.st17{fill:#6DC4FF;}
	.st18{fill:#FFC78E;}
	.st19{fill:#FFD98E;}
	.st20{fill:#FD8369;}
	.st21{fill:#A4A4A4;}
	.st22{fill:#F2F2F2;}
	.st23{fill:#FFE4AD;}
	.st24{fill:none;stroke:#62AEE2;stroke-width:6;stroke-linecap:round;stroke-linejoin:round;}
	.st25{fill:none;stroke:#A4A4A4;stroke-width:6;stroke-linecap:round;stroke-linejoin:round;}
	.st26{fill:#D9D9D9;}
	.st27{fill:#D18C65;}
	.st28{fill:#FFC88E;}
	.st29{fill:none;stroke:#9D9D9D;stroke-width:5.79;stroke-linecap:round;stroke-linejoin:round;}
	.st30{fill:#3F93CE;}
	.st31{font-family:'Corbel-Bold';}
	.st32{font-size:76px;}
	.st33{fill:#32424E;}
	.st34{font-family:'Corbel';}
	.st35{font-size:28px;}
	.st36{fill:url(#Rectangle_10_1_);}
	.st37{font-family:'Novecentosanswide-Light';}
	.st38{fill:#2C2C2C;}
	.st39{font-size:21px;}
	.st40{fill-rule:evenodd;clip-rule:evenodd;fill:#FFFFFF;}
	.st41{font-size:40px;}
	.st42{fill:#EFEFEF;}
</style>
<g>
	<defs>
		<rect id="SVGID_1_" width="1920" height="1415"/>
	</defs>
	<clipPath id="SVGID_2_">
		<use xlink:href="#SVGID_1_" style="overflow:visible;"/>
	</clipPath>
	<g id="Web_1920_1" class="st0">
		
		
			<linearGradient id="Path_43_1_" gradientUnits="userSpaceOnUse" x1="0.2616" y1="1247.4731" x2="1.0146" y2="1248.1692" gradientTransform="matrix(1089.1272 0 0 -851.0268 850.7007 1062241.5)" style="&#10;    color: #1a5285;&#10;">
			<stop offset="0" style="stop-color:#4EABE9;stop-opacity:0.271"/>
			<stop offset="1" style="stop-color:#234C70;stop-opacity:0.361"/>
		</linearGradient>
		<path id="Path_43" class="st2" d="M1052.8-8c0,0-180.2,11.7-201.6,165.9c-11.2,159.5,168,161.7,196.5,298.9    c29.5,121.3,200.9,119.5,200.9,119.5s104,10.5,129.2,88.9C1409.3,745,1519,838,1671,843c136.2,1.8,261.6-84.5,268.8-92.7    c-1.5-72.7,0.8-150.6-5.3-224.2C1925.7-4.2,1911-8,1911-8H1052.8z"/>
		
			<linearGradient id="Path_44_1_" gradientUnits="userSpaceOnUse" x1="0.2663" y1="1247.4703" x2="1.0193" y2="1248.1664" gradientTransform="matrix(1070.2495 0 0 -840.9952 858.0005 1049722)">
			<stop offset="0" style="stop-color:#4EABE9"/>
			<stop offset="1" style="stop-color:#185285"/>
		</linearGradient>
		<path id="Path_44" class="st3" d="M1062-8c0,0-181.9,11.3-203.5,160.3c-11.3,154.1,169.6,156.2,198.3,288.8    c29.8,117.1,187,124.3,187,124.3s113,10.3,139.8,86.3c26.6,75.8,121.3,160.3,260,178.8s284.6-73,284.6-73V-8H1062z"/>
		<g id="Group_1" transform="translate(292.653 -79.92)">
			<path id="Rectangle_1" class="st4" d="M847,221.9h467c3.9,0,7,3.1,7,7v342c0,3.9-3.1,7-7,7H847c-3.9,0-7-3.1-7-7v-342     C840,225,843.1,221.9,847,221.9z"/>
			<path id="Rectangle_2" class="st5" d="M847.1,221.9h466.8c3.9,0,7.1,3.2,7.1,7.1v51.1l0,0H840l0,0V229     C840,225.1,843.2,221.9,847.1,221.9C847.1,221.9,847.1,221.9,847.1,221.9z"/>
			<circle id="Ellipse_1" class="st6" cx="872.4" cy="251" r="9.7"/>
			<circle id="Ellipse_2" class="st7" cx="902.8" cy="251" r="9.7"/>
			<circle id="Ellipse_3" class="st8" cx="932.5" cy="251" r="9.7"/>
			<path id="Rectangle_3" class="st9" d="M979.8,241.3h276c5.2,0,9.4,4.2,9.4,9.4l0,0c0,5.2-4.2,9.4-9.4,9.4h-276     c-5.2,0-9.4-4.2-9.4-9.4l0,0C970.4,245.5,974.6,241.3,979.8,241.3z"/>
		</g>
		<g id="Group_6" transform="translate(76 6)">
			<path id="Path_46" class="st10" d="M1519.7,628.3c0,0-2.5-0.7-2.9-2.1c-0.4-1.4,5.3-1.5,5.3-1.5s3,0,8.8,0.3     c3.4,0.1,6.8,0.4,10.1,1c11,2.8,4.4,4,4.4,4s0,0.3-11.6-0.1S1519.7,628.3,1519.7,628.3z"/>
			<path id="Path_47" class="st10" d="M1659.2,618.5c0,0,17.9,0.2,18.1,4.7s-16.5,7.3-16.5,7.3s-19.1,2.8-39.2,4.2     c-9.2,0.7-18.2,1.3-31.8,0c-39.4-3.8-20.5-9.8-20.5-9.8s14-4.6,52.2-6.4l0,0C1660.5,618.4,1659.2,618.5,1659.2,618.5z"/>
			<g id="Layer_2_1_" transform="translate(2245.231 277.98)">
				<g id="vector" transform="translate(-859.401 89.64)">
					<line id="Line_1" class="st11" x1="165.2" y1="127" x2="165.2" y2="227.2"/>
					<path id="Rectangle_4" class="st12" d="M207.5,21.9L207.5,21.9c3.5,0,6.3,2.8,6.3,6.3v5.1c0,3.5-2.8,6.3-6.3,6.3l0,0       c-3.5,0-6.3-2.8-6.3-6.3v-5.1C201.2,24.7,204,21.9,207.5,21.9z"/>
					<path id="Path_1" class="st13" d="M159.1,236.2c-0.4,1.1-3.5,7.9-3.5,7.9l9.8,3.7l2.9-9.7L159.1,236.2z"/>
					<path id="Path_2" class="st13" d="M215.3,226.6l2,7.4l-8.8,4.3l-5.8-6.1L215.3,226.6z"/>
					<path id="Path_3" class="st14" d="M202.6,84.1c-1,1.2-9.3,11.2-9.9,11.9s-25,8.2-26.3,8.5s-5.9,2.4-7.2,2.4s-5.5-1.4-7.2-1.1       s-7.3,3.5-6.7,4.8s60.2-3,60.2-3l6.5-20.2L202.6,84.1z"/>
					<line id="Line_2" class="st15" x1="214.3" y1="177.5" x2="199.2" y2="255.6"/>
					<path id="Path_4" class="st16" d="M270.2,50h34.3L272,177.5h-62.8v-8.3l35.2-23.4L270.2,50z"/>
					<path id="Path_5" class="st12" d="M199.2,170.1c1.7,3.6,16.4,53.5,16.8,56.4c-1.9,2-10,6.3-13.5,6.6       c-5.9-4.6-22.3-43.4-22.3-43.4S185.8,157.5,199.2,170.1z"/>
					<path id="Path_6" class="st17" d="M269.9,122.6c1.3,1.5,5.4,23.9,6,29.7c0.9,9.1-16.7,22.4-41.6,22.4c-8.2,0-35.4-1.8-43.2-4.8       c-0.4,4.9-20.1,66.6-22.3,68.8c-3.7,1-9.1-1-10.4-2.4s9.4-86.5,12.4-92s64.4-9.6,64.4-9.6L269.9,122.6z"/>
					<path id="Path_7" class="st18" d="M227.3,58.8c11.5,6.7-5.7,36.1-7.9,36.9c-3.5-0.4-15.6-7.5-17.8-12.7       C201.1,79.8,217.5,53,227.3,58.8z"/>
					<path id="Path_8" class="st19" d="M233.7,46.6c19.3,0,37.8,73.6,37.1,76.5c-1.6,6-33.1,17.1-38.2,12.3       C219.7,123.5,196.1,46.6,233.7,46.6z"/>
					<line id="Line_3" class="st15" x1="268.3" y1="177.5" x2="283.5" y2="255.6"/>
					<path id="Path_9" d="M166.2,248.2l-5,12.7L134,248.8l2.7-5.4l19.8,0.6L166.2,248.2z"/>
					<path id="Path_10" d="M217.4,233.1l6.7,11.9l-26.5,13.4l-2.5-5.5l13-15L217.4,233.1z"/>
					<path id="Path_11" class="st14" d="M229.1,38.5c0.4,2.4,3.2,9.8,4.4,11.1s-5.3,9.2-12.5,7.8c-0.2-2.5-1.1-9.5-2.2-10.6       S229.1,38.5,229.1,38.5z"/>
					
						<ellipse id="Ellipse_4" transform="matrix(0.9508 -0.3099 0.3099 0.9508 2.1248 68.4523)" class="st13" cx="216.5" cy="27.5" rx="14.9" ry="20.2"/>
					<path id="Path_12" class="st20" d="M204.6,0c8,0,28.5,14.2,28.5,28.5c0,7.7-1.4,9.6-1.9,9.6s-5.5-3.8-5.5-6.6s-1-6.8-1.9-6.8       c-1.6,0-1.8,1.8-5.9,1.8c-1.5,0-4.4-1.8-4.4-4c-3.3,0.1-3.3,1.1-7.8,1.1c-5.1,0-17.6-2.6-17.6-6.5c0-2.7,3.5-4.5,6.9-3.9       c-2.3-1.2-4.4-3.8-4.4-5.5c0-2.4,3-4,5.3-4c2.3,0,4.6,0.8,6.3,2.3C201.4,4.3,202.4,0,204.6,0z"/>
					<circle id="Ellipse_5" class="st13" cx="223.2" cy="28.6" r="4.1"/>
					<rect id="Rectangle_5" x="0" y="121.1" class="st21" width="207.8" height="5.8"/>
					<path id="Path_13" class="st16" d="M190,111.7H17.7L0,121.1h207.6L190,111.7z"/>
					<line id="Line_4" class="st11" x1="26.2" y1="127" x2="26.2" y2="249.2"/>
					<line id="Line_5" class="st11" x1="42.6" y1="127" x2="42.6" y2="227.2"/>
					<line id="Line_6" class="st11" x1="181.7" y1="127" x2="181.7" y2="249.2"/>
					<rect id="Rectangle_6" x="122.6" y="112.3" class="st21" width="36.8" height="2.5"/>
					<rect id="Rectangle_7" x="76.5" y="109.2" class="st21" width="7.1" height="8.4"/>
					<ellipse id="Ellipse_6" class="st22" cx="149.9" cy="116.1" rx="8.3" ry="3.9"/>
					<path id="Path_14" class="st13" d="M208.5,88.1c-1.2,1.3-8.6,11.9-9.4,13c-16.8,2-39.1,7.4-39.9,7.4s-10.2-3-11.4-2.8       s-3.8,4.7-3.7,5.6s7.5,5.4,16,5.3c1.6-0.1,2.1-1,3.8-1s39.7,2.9,46.3-0.5c3.6-1.9,13.7-16.1,13.7-17.1S208.5,88.1,208.5,88.1z"/>
					<path id="Path_15" class="st23" d="M232.5,62.2c11.5,6.7-5.7,36.1-7.9,36.9c-3.5-0.4-15.6-7.5-17.8-12.7       C206.3,83.2,222.6,56.5,232.5,62.2z"/>
					<rect id="Rectangle_8" x="70.5" y="5" class="st16" width="3.4" height="108.8"/>
					<path id="Path_16" class="st21" d="M73.9,5v108.8l16-5.8V10.8L73.9,5z"/>
					<path id="Rectangle_9" class="st12" d="M222.9,21.9L222.9,21.9c3.5,0,6.3,2.8,6.3,6.3v5.1c0,3.5-2.8,6.3-6.3,6.3l0,0       c-3.5,0-6.3-2.8-6.3-6.3v-5.1C216.7,24.7,219.5,21.9,222.9,21.9z"/>
					<path id="Path_17" class="st24" d="M223.2,24.1c0-2.2,0.8-15.3-6.6-19.2"/>
					<path id="Path_18" class="st25" d="M222.9,39.5c0,1.3-0.5,8.5-6,8.5"/>
				</g>
			</g>
		</g>
		<g id="Group_5" transform="translate(10 -15)">
			<path id="Path_45" class="st26" d="M1157,683.5c0,0-6-2.4-4.7-4.8c1.3-2.4,7.8-2.6,7.8-2.6c4-0.3,8.1-0.4,12.2-0.1     c4.4,0.1,8.9,0.6,13.2,1.4c14.8,3,9.9,5.5,9.9,5.5c-7.1,1.8-14.3,2.6-21.6,2.6C1161.1,685.4,1157,683.5,1157,683.5z"/>
			<g id="Group_3" transform="translate(726.606 107.028)">
				<g id="Layer_3" transform="translate(310.252 253.592)">
					<path id="Path_29" d="M105.2,0c8.2,0.4,19.8,6.9,19.8,18.2s-11.8,15.7-22.3,17.5c7.2,8.5,10.1,10.2,9.4,13.9       s-7.3,13.8-7.9,25.4s-32,75.2-37.9,77.1S72,165.7,30.9,167C19.9,167,0,150.7,0,129.5C-0.5,83.3,47.6,74.5,74.3,23       C86.5-0.7,101.4-0.2,105.2,0z"/>
				</g>
				<path id="Path_30" class="st13" d="M515.3,512.2l10-5.8l7.1,12.3l-10,5.8L515.3,512.2z"/>
				<path id="Path_31" class="st13" d="M440.9,535.3l10.4,5l-6.1,12.7l-10.4-5L440.9,535.3z"/>
				<path id="Path_32" class="st12" d="M498.7,427.3c10.1,0,25,60.6,31.4,78.4c-1.3,3.7-8.9,9.5-13.1,9.5c-8-13.5-26-42.3-29.2-46.8      C485.3,464.9,488.6,427.3,498.7,427.3z"/>
				<path id="Path_33" class="st17" d="M382.8,416.2c-8.8,0-16-1.9-16,18.7s22.5,37.8,49.2,37.8s38.6-0.7,41-1.3      c0.7,6.8-15,53.6-16.7,65.6c1.2,3.2,9,7.2,12.3,7.2c3.3,0,47.3-71.4,46.1-115.5c0.2-6.9-25.2-8.8-41.3-8.8s-50.2,1.8-54.5,1.8"/>
				<path id="Path_34" class="st19" d="M369.9,418.2c-1.1-4.6-7.1-103.3,28.9-101.5s35.7,89.7,31.6,103.6      C413.9,427.2,371,423.1,369.9,418.2z"/>
				<path id="Path_35" class="st27" d="M410.9,308.9c-0.6,1.3-3.6,8.5-4.2,11.4s-16.1-0.8-15.2-2.2c5.1-8.7,6-17.8,6.8-22.3      C399.1,291.6,414.7,300,410.9,308.9z"/>
				<path id="Path_36" class="st13" d="M406.5,366.9l-22.2,2.4c-1.5,1.9-0.9,6.3-0.9,8.5c-0.1,8.4,0.3,17.8,5.3,24.8      c2,2.7,5.2,5.4,8.4,5.4c5,2,13.3,4.2,13.3,4.2L423,415c0,0,21.3,3.8,31.8,3.5c3.5-0.1,7.1-0.5,10.5-0.4c2,0.1,5.2,0.7,7.1,0      c0.6-0.2,0.4-1.4,0.3-1.9c-0.5-1.7-2.1-2.8-3.5-3.6c-3.4-1.7-5.3-0.6-8.8-0.6c-2.9,0-6.3-1.4-11.3-3.4      c-5.9-2.3-12.6-5.1-18.5-7.1c-6.8-2.3-13.8-4.8-20.4-7.5c-1.3-0.5-2.7-0.9-4.1-1.4c0.6-3.6,1-7.2,1.1-10.9c0.2-4,0.1-8-0.4-12      C406.7,368.9,406.9,367.8,406.5,366.9z"/>
				<path id="Path_37" class="st23" d="M378.3,369.8c-3.8-10.1-0.5-41.5,11.8-43.5c17.1-2.5,22.2,37.2,20.5,41.8      C407.6,369.9,390.7,375.9,378.3,369.8z"/>
				<path id="Path_38" class="st13" d="M429.2,275c-9.2,8.8-21.3,13.8-34,14.2c-0.6,0.7-0.9,1.7-0.9,2.6c0,2.2,1.6,4.1,3.8,4.4      c1.1,6.7,4.7,12,9.9,13.6c8.4,2.6,18-5.3,21.4-17.6C431,286.6,431,280.6,429.2,275z"/>
				<path id="Path_39" class="st28" d="M442.3,419.2c8.9,0,40.9-0.3,46.8-0.3"/>
				<path id="Path_40" class="st29" d="M436.8,419.6c9.4,0,41.7-0.8,47.1-0.8c4.2-6.4,23.5-40.2,24.8-42.7"/>
				<path id="Path_41" d="M436.4,545l-6.8,12.9l34.4,18l1.9-3.7l-17-20.7L436.4,545z"/>
				<path id="Path_42" d="M520.2,521.2l7.5,12.5l33.3-20l-2.1-3.5l-26.6,3.8L520.2,521.2z"/>
			</g>
		</g>
	</g>
</g>
</svg>
